#!OML:ASF F:\VICON\USERDATA\INSTALL\rory3\rory3.ASF
:FULLY-SPECIFIED
:DEGREES
1706
root 3.63883 18.0136 14.681 727.339 -250.356 370.793
lowerback 13.5941 0.997148 2.34381
upperback 1.51229 1.85989 1.31618
thorax -5.9977 0.913618 -0.284727
lowerneck -19.3124 -3.79714 -9.78408
upperneck 29.1513 -3.18582 5.23026
head 13.3029 -1.55065 3.23996
rclavicle -4.77083e-014 1.07344e-014
rhumerus -33.9306 -8.05417 -78.8341
rradius 29.4441
rwrist 4.83076
rhand -17.0846 7.70009
rfingers 7.12502
rthumb 9.15371 -22.0812
lclavicle -4.77083e-014 1.07344e-014
lhumerus -33.6955 1.12899 85.6648
lradius 34.5732
lwrist -5.46185
lhand -19.0151 24.1872
lfingers 7.12502
lthumb 7.29056 54.0416
rfemur -0.466783 -0.165091 21.6312
rtibia 20.0052
rfoot -12.3171 -4.37373
rtoes -12.3544
lfemur -21.9833 2.33638 -16.6766
ltibia 50.1453
lfoot -5.09865 -2.29293
ltoes 3.5524
1707
root 3.7218 18.0099 14.6616 727.463 -249.699 370.62
lowerback 13.6024 0.980365 2.42192
upperback 1.37153 1.84468 1.26305
thorax -6.1477 0.898635 -0.383563
lowerneck -19.3343 -3.73705 -9.63401
upperneck 29.0384 -3.05368 4.93576
head 13.2399 -1.51555 3.11585
rclavicle 1.12903e-014 -8.99501e-015
rhumerus -33.7185 -7.83129 -78.9006
rradius 29.4901
rwrist 4.85722
rhand -17.1965 7.59731
rfingers 7.12502
rthumb 9.04573 -22.1887
lclavicle 1.12903e-014 -8.99501e-015
lhumerus -33.7653 1.21574 85.5303
lradius 34.5932
lwrist -5.5087
lhand -18.5969 23.8198
lfingers 7.12502
lthumb 7.69426 53.6598
rfemur -0.312238 -0.241338 21.7934
rtibia 19.8652
rfoot -12.4506 -4.9545
rtoes -11.8497
lfemur -22.6094 2.20264 -16.5607
ltibia 48.3171
lfoot -5.09458 -1.54767
ltoes 1.90215
1708
root 3.81284 18.0102 14.6278 727.404 -249.162 370.436
lowerback 13.7017 0.985357 2.48638
upperback 1.25813 1.86303 1.24109
thorax -6.32019 0.901281 -0.44994
lowerneck -19.0817 -3.61709 -9.11088
upperneck 28.6529 -2.83193 4.13246
head 12.9842 -1.46914 2.73647
rclavicle -2.59166e-014 1.9543e-014
rhumerus -33.4525 -7.42807 -78.9673
rradius 29.4258
rwrist 4.74611
rhand -17.4873 7.47642
rfingers 7.12502
rthumb 8.76511 -22.3216
lclavicle -2.59166e-014 1.9543e-014
lhumerus -33.9916 1.34506 85.4564
lradius 34.682
lwrist -5.50223
lhand -18.1647 23.238
lfingers 7.12502
lthumb 8.11136 53.0623
rfemur 0.0554056 -0.44748 21.8325
rtibia 19.6944
rfoot -12.6628 -5.23844
rtoes -11.3988
lfemur -22.8978 1.86278 -16.5007
ltibia 46.3793
lfoot -5.15583 -0.290553
ltoes 1.30151
1709
root 3.90858 18.0012 14.5921 727.478 -248.634 370.421
lowerback 13.6986 1.00017 2.66058
upperback 1.21724 1.90349 1.16623
thorax -6.35278 0.914004 -0.635008
lowerneck -18.853 -3.55375 -8.79153
upperneck 28.3053 -2.78204 3.82966
head 12.7782 -1.45283 2.5647
rclavicle -5.99778e-014 6.60338e-015
rhumerus -33.3176 -7.14119 -79.0495
rradius 29.5278
rwrist 4.64771
rhand -17.6616 7.43027
rfingers 7.12502
rthumb 8.59691 -22.3747
lclavicle -5.99778e-014 6.60338e-015
lhumerus -34.0907 1.39101 85.3208
lradius 34.7503
lwrist -5.54337
lhand -18.4089 23.4099
lfingers 7.12502
lthumb 7.87565 53.2432
rfemur 0.517527 -0.748982 21.9221
rtibia 19.3864
rfoot -12.8986 -5.55985
rtoes -11.3343
lfemur -23.0951 1.7074 -16.4526
ltibia 44.3607
lfoot -5.24262 1.11761
ltoes -1.9736
1710
root 4.00457 17.9917 14.5565 727.67 -248.126 370.425
lowerback 13.5743 1.0532 2.80387
upperback 1.12944 1.98519 1.10868
thorax -6.3678 0.946701 -0.789539
lowerneck -18.5876 -3.56103 -8.74714
upperneck 28.1269 -2.83272 3.83931
head 12.6535 -1.46751 2.55028
rclavicle -9.405e-015 1.46604e-015
rhumerus -33.4449 -6.81789 -79.0559
rradius 29.911
rwrist 4.50355
rhand -17.6924 7.28605
rfingers 7.12502
rthumb 8.56714 -22.5201
lclavicle -9.405e-015 1.46604e-015
lhumerus -34.1475 1.56394 85.1171
lradius 34.6894
lwrist -5.91819
lhand -18.5728 23.6982
lfingers 7.12502
lthumb 7.71753 53.5374
rfemur 0.935955 -0.893514 22.0502
rtibia 18.9712
rfoot -13.0366 -6.00909
rtoes -10.9153
lfemur -23.3754 1.69196 -16.3793
ltibia 42.2901
lfoot -5.2977 2.19199
ltoes -2.85878
1711
root 4.09873 17.9933 14.517 727.97 -247.728 370.554
lowerback 13.4821 1.19007 2.98961
upperback 1.02328 2.18697 1.06741
thorax -6.41446 1.03621 -0.973821
lowerneck -18.5522 -3.68988 -8.98181
upperneck 28.3503 -3.03677 4.18994
head 12.7639 -1.53248 2.69911
rclavicle -3.26628e-014 2.48481e-016
rhumerus -33.5514 -6.59059 -79.0164
rradius 30.2266
rwrist 4.25303
rhand -17.8857 6.86908
rfingers 7.12502
rthumb 8.38065 -22.9447
lclavicle -3.26628e-014 2.48481e-016
lhumerus -34.2132 1.39734 85.0428
lradius 34.5606
lwrist -6.0942
lhand -18.577 23.776
lfingers 7.12502
lthumb 7.7134 53.6153
rfemur 1.42111 -0.656039 22.2423
rtibia 18.4991
rfoot -13.0951 -6.51457
rtoes -10.3911
lfemur -23.6081 1.51524 -16.1778
ltibia 40.1726
lfoot -5.07765 3.11734
ltoes -2.34829
1712
root 4.1913 17.9947 14.4735 728.33 -247.335 370.78
lowerback 13.4569 1.32837 3.22833
upperback 0.950477 2.4047 1.0548
thorax -6.45991 1.13338 -1.16187
lowerneck -18.8626 -3.91193 -9.73126
upperneck 28.8924 -3.35543 5.13647
head 13.1141 -1.62264 3.16028
rclavicle -5.74798e-014 -1.51573e-014
rhumerus -33.5339 -6.0898 -79.0355
rradius 30.5157
rwrist 3.54848
rhand -18.378 6.52799
rfingers 7.12502
rthumb 7.90548 -23.3042
lclavicle -5.74798e-014 -1.51573e-014
lhumerus -34.2135 1.5072 84.9938
lradius 34.3826
lwrist -6.37966
lhand -19.0569 23.8342
lfingers 7.12502
lthumb 7.25023 53.69
rfemur 1.95042 -0.492037 22.4595
rtibia 17.9594
rfoot -13.0678 -7.01923
rtoes -10.4726
lfemur -23.7618 1.16433 -15.9293
ltibia 38.0006
lfoot -4.26686 4.03173
ltoes -4.42021
1713
root 4.2833 17.9941 14.4275 728.484 -246.911 370.71
lowerback 13.3237 1.39236 3.28111
upperback 0.918093 2.49315 1.0788
thorax -6.41541 1.17559 -1.17855
lowerneck -19.1909 -4.01162 -10.2024
upperneck 29.1627 -3.45421 5.61868
head 13.3274 -1.65055 3.42438
rclavicle 3.29175e-014 -4.22417e-015
rhumerus -33.346 -5.68917 -78.9589
rradius 30.7794
rwrist 3.38383
rhand -18.195 7.03792
rfingers 7.12502
rthumb 8.08216 -22.7875
lclavicle 3.29175e-014 -4.22417e-015
lhumerus -34.1711 2.04727 84.8959
lradius 34.2673
lwrist -6.87908
lhand -19.2656 23.9232
lfingers 7.12502
lthumb 7.04881 53.7858
rfemur 2.42309 -0.720518 22.5009
rtibia 17.3458
rfoot -13.0233 -7.39178
rtoes -10.8722
lfemur -23.9369 0.877299 -15.8199
ltibia 35.7817
lfoot -4.08688 4.9326
ltoes 0.60152
1714
root 4.3739 17.9961 14.3795 728.676 -246.498 370.572
lowerback 13.0726 1.41146 3.30886
upperback 0.851417 2.51079 1.08763
thorax -6.34459 1.18303 -1.18063
lowerneck -19.3368 -3.98277 -10.1074
upperneck 29.1741 -3.37766 5.45686
head 13.3502 -1.62757 3.35634
rclavicle 1.64059e-014 2.05742e-014
rhumerus -33.1169 -5.50871 -78.814
rradius 30.9088
rwrist 3.67614
rhand -17.7254 7.65532
rfingers 7.12502
rthumb 8.5353 -22.1522
lclavicle 1.64059e-014 2.05742e-014
lhumerus -34.1499 2.42771 84.7792
lradius 34.1184
lwrist -7.25625
lhand -19.2157 24.4811
lfingers 7.12502
lthumb 7.09689 54.3421
rfemur 2.7819 -0.928541 22.4993
rtibia 16.729
rfoot -12.9707 -7.6826
rtoes -11.0988
lfemur -24.1793 0.310982 -15.6483
ltibia 33.5548
lfoot -3.7732 5.62841
ltoes 4.85067
1715
root 4.46148 17.9974 14.3336 729.289 -246.123 370.919
lowerback 12.9088 1.39408 3.5808
upperback 0.790564 2.51976 1.08387
thorax -6.30579 1.17915 -1.33441
lowerneck -19.5257 -3.92266 -10.0042
upperneck 29.1616 -3.28276 5.37147
head 13.3711 -1.58588 3.31981
rclavicle -1.94436e-015 -8.15017e-015
rhumerus -32.744 -5.3945 -78.761
rradius 30.836
rwrist 3.89715
rhand -17.8911 7.26907
rfingers 7.12502
rthumb 8.3754 -22.5449
lclavicle -1.94436e-015 -8.15017e-015
lhumerus -34.0752 2.90541 84.4797
lradius 33.9238
lwrist -7.31576
lhand -19.3144 24.6292
lfingers 7.12502
lthumb 7.00171 54.4934
rfemur 3.12984 -0.732576 22.7819
rtibia 16.1411
rfoot -12.8753 -8.14713
rtoes -10.2746
lfemur -24.3893 -0.262955 -15.2116
ltibia 31.3243
lfoot -3.20421 6.13519
ltoes 7.13538
1716
root 4.55249 17.9962 14.2878 729.724 -245.805 371.203
lowerback 12.8575 1.40656 3.78085
upperback 0.773876 2.56225 1.06851
thorax -6.28366 1.19432 -1.46893
lowerneck -19.7383 -3.8918 -10.0283
upperneck 29.1566 -3.23898 5.45359
head 13.4112 -1.55815 3.36373
rclavicle 1.00697e-014 1.0138e-014
rhumerus -32.4412 -5.13778 -78.7858
rradius 30.8898
rwrist 3.91602
rhand -17.7197 7.3518
rfingers 7.12502
rthumb 8.54082 -22.4555
lclavicle 1.00697e-014 1.0138e-014
lhumerus -34.0249 3.74078 84.0247
lradius 33.8889
lwrist -7.13678
lhand -18.9589 24.3921
lfingers 7.12502
lthumb 7.3448 54.2446
rfemur 3.63416 -0.391928 23.0742
rtibia 15.5585
rfoot -12.7489 -8.71743
rtoes -9.78279
lfemur -24.4194 -0.675894 -14.8001
ltibia 29.1372
lfoot -2.60224 6.35931
ltoes 8.19412
1717
root 4.64976 17.9946 14.2341 729.331 -245.553 370.755
lowerback 12.8016 1.45564 3.57785
upperback 0.864107 2.59425 1.06624
thorax -6.16362 1.22011 -1.3593
lowerneck -19.9597 -3.86317 -10.1123
upperneck 29.0825 -3.13845 5.41012
head 13.4186 -1.53043 3.37476
rclavicle -7.94021e-014 1.799e-014
rhumerus -32.1745 -4.56718 -78.8028
rradius 31.2006
rwrist 3.40936
rhand -16.4402 8.94171
rfingers 7.12502
rthumb 9.77546 -20.8114
lclavicle -7.94021e-014 1.799e-014
lhumerus -34.069 4.67076 83.7449
lradius 34.0435
lwrist -7.23821
lhand -18.7144 24.078
lfingers 7.12502
lthumb 7.58086 53.9222
rfemur 4.34769 -0.280481 22.958
rtibia 15.0381
rfoot -12.716 -9.11393
rtoes -10.5364
lfemur -24.2151 -1.31078 -14.7159
ltibia 27.035
lfoot -2.12906 6.68259
ltoes 9.59513
1718
root 4.74892 17.9907 14.1787 728.795 -245.36 370.12
lowerback 12.6856 1.50825 3.24645
upperback 0.935679 2.61066 1.07673
thorax -6.03703 1.24091 -1.15957
lowerneck -20.1359 -3.84242 -10.3517
upperneck 29.0221 -3.00083 5.38281
head 13.423 -1.50167 3.42598
rclavicle 2.38511e-014 -5.51627e-015
rhumerus -31.8344 -4.05601 -78.7545
rradius 31.4134
rwrist 3.11421
rhand -17.6423 7.05589
rfingers 7.12502
rthumb 8.61559 -22.7483
lclavicle 2.38511e-014 -5.51627e-015
lhumerus -34.1023 5.21378 83.6465
lradius 34.03
lwrist -7.28225
lhand -18.7113 24.2393
lfingers 7.12502
lthumb 7.58386 54.0834
rfemur 4.9572 -0.283276 22.7078
rtibia 14.6512
rfoot -12.649 -9.35796
rtoes -11.197
lfemur -23.9705 -2.06849 -14.7257
ltibia 25.0328
lfoot -1.69233 7.19213
ltoes 9.5856
1719
root 4.8462 17.9853 14.1226 728.296 -245.231 369.565
lowerback 12.655 1.56275 2.95721
upperback 0.983832 2.63843 1.0591
thorax -5.9796 1.26353 -1.01846
lowerneck -20.2556 -3.83184 -10.6241
upperneck 29.0204 -2.92725 5.53928
head 13.4493 -1.47862 3.54822
rclavicle 9.13447e-014 -2.48481e-015
rhumerus -31.4846 -3.90789 -78.6248
rradius 31.451
rwrist 3.43
rhand -17.2691 7.34098
rfingers 7.12502
rthumb 8.97572 -22.4481
lclavicle 9.13447e-014 -2.48481e-015
lhumerus -34.014 5.6256 83.4808
lradius 33.7188
lwrist -7.28325
lhand -18.4613 24.5693
lfingers 7.12502
lthumb 7.82516 54.4045
rfemur 5.54956 -0.0884599 22.5112
rtibia 14.3583
rfoot -12.6137 -9.68544
rtoes -11.2514
lfemur -23.6511 -2.79022 -14.6959
ltibia 23.1815
lfoot -1.56471 7.97315
ltoes 8.87898
